<svg xmlns="http://www.w3.org/2000/svg" xmlns:xlink="http://www.w3.org/1999/xlink" width="200" zoomAndPan="magnify" viewBox="0 0 150 74.999997" height="100" preserveAspectRatio="xMidYMid meet" version="1.0"><defs><g/><clipPath id="0ada80d064"><path d="M 44 16.160156 L 66 16.160156 L 66 58 L 44 58 Z M 44 16.160156 " clip-rule="nonzero"/></clipPath><clipPath id="cf56d9e291"><path d="M 56 16.160156 L 76.945312 16.160156 L 76.945312 58 L 56 58 Z M 56 16.160156 " clip-rule="nonzero"/></clipPath></defs><path fill="#6439ff" d="M 54.652344 23.121094 C 52.839844 23.453125 51.132812 23.851562 49.53125 24.292969 C 39.675781 27.019531 33.976562 31.375 33.890625 31.445312 C 30.117188 32.710938 26.683594 33.132812 19.066406 34.222656 C 6.949219 35.953125 4.636719 37.6875 3.484375 42.300781 C 3.484375 42.300781 1.957031 43.832031 2.007812 48.128906 C 2.03125 50.019531 3.582031 51.535156 5.472656 51.535156 L 14.984375 51.535156 C 14.558594 50.503906 14.347656 49.433594 14.347656 48.316406 C 14.347656 43.664062 18.121094 39.890625 22.773438 39.890625 C 27.429688 39.890625 31.203125 43.664062 31.203125 48.316406 C 31.203125 49.433594 30.992188 50.503906 30.5625 51.535156 L 54.796875 51.535156 L 60.335938 33.019531 L 57.023438 33.179688 L 51.5625 33.453125 L 50.078125 33.523438 L 48.058594 33.625 L 45.242188 33.761719 L 38.265625 34.101562 C 37.484375 34.140625 37.132812 33.140625 37.765625 32.675781 C 41.441406 29.984375 45.503906 28.113281 49.703125 26.828125 C 50.792969 26.496094 51.890625 26.199219 53 25.945312 C 53.289062 25.875 53.578125 25.8125 53.867188 25.75 C 54.332031 25.648438 54.796875 25.554688 55.261719 25.46875 C 57.714844 25 60.179688 24.695312 62.605469 24.507812 L 62.890625 24.488281 L 63.582031 22.179688 C 60.582031 22.269531 57.605469 22.585938 54.652344 23.121094 Z M 14.792969 38.171875 C 14.441406 39.277344 12.832031 42.410156 5.898438 42.515625 C 5.800781 42.519531 5.71875 42.480469 5.652344 42.40625 C 5.585938 42.332031 5.5625 42.246094 5.578125 42.148438 C 5.6875 41.425781 6.113281 39.800781 7.730469 38.710938 C 9.511719 37.503906 13.308594 37.667969 14.511719 37.753906 C 14.613281 37.761719 14.695312 37.808594 14.753906 37.894531 C 14.8125 37.980469 14.824219 38.070312 14.792969 38.171875 Z M 14.792969 38.171875 " fill-opacity="1" fill-rule="nonzero"/><path fill="#000000" d="M 29.8125 48.316406 C 29.8125 48.777344 29.765625 49.234375 29.675781 49.6875 C 29.585938 50.140625 29.453125 50.582031 29.277344 51.007812 C 29.097656 51.433594 28.882812 51.839844 28.625 52.226562 C 28.367188 52.609375 28.078125 52.964844 27.75 53.292969 C 27.421875 53.617188 27.066406 53.910156 26.683594 54.167969 C 26.300781 54.421875 25.894531 54.640625 25.46875 54.816406 C 25.039062 54.992188 24.601562 55.125 24.148438 55.21875 C 23.695312 55.308594 23.238281 55.351562 22.773438 55.351562 C 22.3125 55.351562 21.855469 55.308594 21.402344 55.21875 C 20.949219 55.125 20.507812 54.992188 20.082031 54.816406 C 19.65625 54.640625 19.25 54.421875 18.867188 54.167969 C 18.480469 53.910156 18.125 53.617188 17.800781 53.292969 C 17.472656 52.964844 17.183594 52.609375 16.925781 52.226562 C 16.667969 51.839844 16.453125 51.433594 16.273438 51.007812 C 16.097656 50.582031 15.964844 50.140625 15.875 49.6875 C 15.785156 49.234375 15.738281 48.777344 15.738281 48.316406 C 15.738281 47.855469 15.785156 47.398438 15.875 46.945312 C 15.964844 46.492188 16.097656 46.050781 16.273438 45.625 C 16.453125 45.195312 16.667969 44.792969 16.925781 44.40625 C 17.183594 44.023438 17.472656 43.667969 17.800781 43.339844 C 18.125 43.015625 18.480469 42.722656 18.867188 42.464844 C 19.25 42.210938 19.65625 41.992188 20.082031 41.816406 C 20.507812 41.640625 20.949219 41.503906 21.402344 41.414062 C 21.855469 41.324219 22.3125 41.28125 22.773438 41.28125 C 23.238281 41.28125 23.695312 41.324219 24.148438 41.414062 C 24.601562 41.503906 25.039062 41.640625 25.46875 41.816406 C 25.894531 41.992188 26.300781 42.210938 26.683594 42.464844 C 27.066406 42.722656 27.421875 43.015625 27.75 43.339844 C 28.078125 43.667969 28.367188 44.023438 28.625 44.40625 C 28.882812 44.792969 29.097656 45.195312 29.277344 45.625 C 29.453125 46.050781 29.585938 46.492188 29.675781 46.945312 C 29.765625 47.398438 29.8125 47.855469 29.8125 48.316406 Z M 29.8125 48.316406 " fill-opacity="1" fill-rule="nonzero"/><g clip-path="url(#0ada80d064)"><path fill="#000000" d="M 65.492188 16.160156 L 63.507812 22.789062 L 62.835938 25.035156 L 60.351562 33.335938 L 54.960938 51.347656 L 52.988281 57.949219 L 44.578125 57.949219 L 46.554688 51.347656 L 51.820312 33.753906 L 54.058594 26.261719 L 54.824219 23.707031 L 57.082031 16.160156 Z M 65.492188 16.160156 " fill-opacity="1" fill-rule="nonzero"/></g><g clip-path="url(#cf56d9e291)"><path fill="#6439ff" d="M 77.238281 16.160156 L 75.078125 23.382812 L 74.464844 25.429688 L 72.292969 32.6875 L 66.710938 51.347656 L 64.734375 57.949219 L 56.324219 57.949219 L 58.300781 51.347656 L 64.257812 31.445312 L 66.234375 24.84375 L 66.839844 22.8125 L 68.832031 16.160156 Z M 77.238281 16.160156 " fill-opacity="1" fill-rule="nonzero"/></g><g fill="#000000" fill-opacity="1"><g transform="translate(77.748688, 37.077367)"><g><path d="M 2.609375 0.15625 C 1.265625 0.15625 0.359375 -0.21875 -0.109375 -0.96875 C -0.578125 -1.726562 -0.644531 -2.851562 -0.3125 -4.34375 L 2.4375 -16.234375 L 5.59375 -16.234375 L 2.875 -4.484375 C 2.757812 -3.960938 2.71875 -3.554688 2.75 -3.265625 C 2.78125 -2.972656 2.957031 -2.828125 3.28125 -2.828125 C 3.613281 -2.828125 3.863281 -2.96875 4.03125 -3.25 C 4.195312 -3.539062 4.335938 -3.953125 4.453125 -4.484375 L 7.171875 -16.234375 L 10.328125 -16.234375 L 7.59375 -4.34375 C 7.25 -2.851562 6.664062 -1.726562 5.84375 -0.96875 C 5.019531 -0.21875 3.941406 0.15625 2.609375 0.15625 Z M 2.609375 0.15625 "/></g></g></g><g fill="#000000" fill-opacity="1"><g transform="translate(86.019562, 37.077367)"><g><path d="M -1.140625 0 L 2.609375 -16.234375 L 5.859375 -16.234375 L 2.75 -2.765625 L 6.09375 -2.765625 L 5.453125 0 Z M -1.140625 0 "/></g></g></g><g fill="#000000" fill-opacity="1"><g transform="translate(92.836407, 37.077367)"><g><path d="M 0.25 0 L 3.265625 -13.109375 L 1.34375 -13.109375 L 2.0625 -16.234375 L 9.15625 -16.234375 L 8.4375 -13.109375 L 6.515625 -13.109375 L 3.5 0 Z M 0.25 0 "/></g></g></g><g fill="#000000" fill-opacity="1"><g transform="translate(99.634366, 37.077367)"><g><path d="M -1.28125 0 L 2.453125 -16.234375 L 5.59375 -16.234375 L 1.84375 0 Z M -1.28125 0 "/></g></g></g><g fill="#000000" fill-opacity="1"><g transform="translate(103.241021, 37.077367)"><g><path d="M -1.140625 0 L 2.609375 -16.234375 L 7.546875 -16.234375 L 6.625 -6.328125 L 10.265625 -16.234375 L 15.265625 -16.234375 L 11.515625 0 L 8.546875 0 L 11.25 -11.6875 L 6.6875 0 L 3.78125 0 L 4.5 -11.6875 L 1.796875 0 Z M -1.140625 0 "/></g></g></g><g fill="#000000" fill-opacity="1"><g transform="translate(116.648199, 37.077367)"><g><path d="M -1.578125 0 L 3.734375 -16.234375 L 9.234375 -16.234375 L 7.046875 0 L 3.96875 0 L 4.34375 -2.625 L 2.375 -2.625 L 1.578125 0 Z M 3.234375 -5.21875 L 4.703125 -5.21875 L 5.875 -13.46875 L 5.71875 -13.46875 Z M 3.234375 -5.21875 "/></g></g></g><g fill="#000000" fill-opacity="1"><g transform="translate(125.126792, 37.077367)"><g><path d="M 0.25 0 L 3.265625 -13.109375 L 1.34375 -13.109375 L 2.0625 -16.234375 L 9.15625 -16.234375 L 8.4375 -13.109375 L 6.515625 -13.109375 L 3.5 0 Z M 0.25 0 "/></g></g></g><g fill="#000000" fill-opacity="1"><g transform="translate(131.924751, 37.077367)"><g><path d="M -1.140625 0 L 2.609375 -16.234375 L 9.109375 -16.234375 L 8.390625 -13.09375 L 5.1875 -13.09375 L 4.453125 -9.9375 L 7.515625 -9.9375 L 6.8125 -6.875 L 3.75 -6.875 L 2.890625 -3.15625 L 6.28125 -3.15625 L 5.5625 0 Z M -1.140625 0 "/></g></g></g><g fill="#6439ff" fill-opacity="1"><g transform="translate(72.269932, 54.921307)"><g><path d="M 2.609375 0.15625 C 1.421875 0.15625 0.554688 -0.210938 0.015625 -0.953125 C -0.523438 -1.703125 -0.644531 -2.726562 -0.34375 -4.03125 L 1.375 -11.5 C 1.75 -13.113281 2.351562 -14.328125 3.1875 -15.140625 C 4.019531 -15.960938 5.125 -16.375 6.5 -16.375 C 7.695312 -16.375 8.582031 -16.046875 9.15625 -15.390625 C 9.738281 -14.734375 9.882812 -13.789062 9.59375 -12.5625 L 8.953125 -9.765625 L 5.71875 -9.765625 L 6.28125 -12.171875 C 6.382812 -12.628906 6.398438 -12.945312 6.328125 -13.125 C 6.265625 -13.300781 6.09375 -13.390625 5.8125 -13.390625 C 5.519531 -13.390625 5.296875 -13.285156 5.140625 -13.078125 C 4.984375 -12.878906 4.863281 -12.585938 4.78125 -12.203125 L 2.890625 -4.0625 C 2.796875 -3.632812 2.785156 -3.320312 2.859375 -3.125 C 2.941406 -2.925781 3.109375 -2.828125 3.359375 -2.828125 C 3.859375 -2.828125 4.203125 -3.238281 4.390625 -4.0625 L 5.078125 -6.984375 L 8.34375 -6.984375 L 7.640625 -3.921875 C 7.015625 -1.203125 5.335938 0.15625 2.609375 0.15625 Z M 2.609375 0.15625 "/></g></g></g><g fill="#6439ff" fill-opacity="1"><g transform="translate(80.540806, 54.921307)"><g><path d="M -1.578125 0 L 3.734375 -16.234375 L 9.234375 -16.234375 L 7.046875 0 L 3.96875 0 L 4.34375 -2.625 L 2.375 -2.625 L 1.578125 0 Z M 3.234375 -5.21875 L 4.703125 -5.21875 L 5.875 -13.46875 L 5.71875 -13.46875 Z M 3.234375 -5.21875 "/></g></g></g><g fill="#6439ff" fill-opacity="1"><g transform="translate(89.0194, 54.921307)"><g><path d="M 2.609375 -16.234375 L 7.59375 -16.234375 C 8.382812 -16.234375 8.957031 -16.050781 9.3125 -15.6875 C 9.664062 -15.332031 9.84375 -14.828125 9.84375 -14.171875 C 9.84375 -13.523438 9.726562 -12.695312 9.5 -11.6875 C 9.28125 -10.769531 8.988281 -10.050781 8.625 -9.53125 C 8.269531 -9.019531 7.773438 -8.664062 7.140625 -8.46875 C 7.609375 -8.363281 7.90625 -8.113281 8.03125 -7.71875 C 8.164062 -7.332031 8.15625 -6.804688 8 -6.140625 L 6.546875 0 L 3.375 0 L 4.828125 -6.34375 C 4.941406 -6.800781 4.921875 -7.09375 4.765625 -7.21875 C 4.617188 -7.34375 4.3125 -7.40625 3.84375 -7.40625 L 2.15625 0 L -1.140625 0 Z M 5.3125 -10.21875 C 5.757812 -10.21875 6.097656 -10.707031 6.328125 -11.6875 C 6.421875 -12.113281 6.472656 -12.4375 6.484375 -12.65625 C 6.492188 -12.875 6.457031 -13.019531 6.375 -13.09375 C 6.289062 -13.175781 6.15625 -13.21875 5.96875 -13.21875 L 5.203125 -13.21875 L 4.53125 -10.21875 Z M 5.3125 -10.21875 "/></g></g></g><g fill="#6439ff" fill-opacity="1"><g transform="translate(97.34692, 54.921307)"><g/></g></g><g fill="#6439ff" fill-opacity="1"><g transform="translate(101.085755, 54.921307)"><g><path d="M 2.609375 -16.234375 L 7.59375 -16.234375 C 8.382812 -16.234375 8.957031 -16.050781 9.3125 -15.6875 C 9.664062 -15.332031 9.84375 -14.828125 9.84375 -14.171875 C 9.84375 -13.523438 9.726562 -12.695312 9.5 -11.6875 C 9.28125 -10.769531 8.988281 -10.050781 8.625 -9.53125 C 8.269531 -9.019531 7.773438 -8.664062 7.140625 -8.46875 C 7.609375 -8.363281 7.90625 -8.113281 8.03125 -7.71875 C 8.164062 -7.332031 8.15625 -6.804688 8 -6.140625 L 6.546875 0 L 3.375 0 L 4.828125 -6.34375 C 4.941406 -6.800781 4.921875 -7.09375 4.765625 -7.21875 C 4.617188 -7.34375 4.3125 -7.40625 3.84375 -7.40625 L 2.15625 0 L -1.140625 0 Z M 5.3125 -10.21875 C 5.757812 -10.21875 6.097656 -10.707031 6.328125 -11.6875 C 6.421875 -12.113281 6.472656 -12.4375 6.484375 -12.65625 C 6.492188 -12.875 6.457031 -13.019531 6.375 -13.09375 C 6.289062 -13.175781 6.15625 -13.21875 5.96875 -13.21875 L 5.203125 -13.21875 L 4.53125 -10.21875 Z M 5.3125 -10.21875 "/></g></g></g><g fill="#6439ff" fill-opacity="1"><g transform="translate(109.413275, 54.921307)"><g><path d="M -1.140625 0 L 2.609375 -16.234375 L 9.109375 -16.234375 L 8.390625 -13.09375 L 5.1875 -13.09375 L 4.453125 -9.9375 L 7.515625 -9.9375 L 6.8125 -6.875 L 3.75 -6.875 L 2.890625 -3.15625 L 6.28125 -3.15625 L 5.5625 0 Z M -1.140625 0 "/></g></g></g><g fill="#6439ff" fill-opacity="1"><g transform="translate(116.513373, 54.921307)"><g><path d="M -1.140625 0 L 2.609375 -16.234375 L 5.953125 -16.234375 L 5.640625 -8.46875 L 7.4375 -16.234375 L 10.578125 -16.234375 L 6.828125 0 L 3.65625 0 L 3.90625 -8.125 L 2.03125 0 Z M -1.140625 0 "/></g></g></g><g fill="#6439ff" fill-opacity="1"><g transform="translate(125.237452, 54.921307)"><g><path d="M 0.25 0 L 3.265625 -13.109375 L 1.34375 -13.109375 L 2.0625 -16.234375 L 9.15625 -16.234375 L 8.4375 -13.109375 L 6.515625 -13.109375 L 3.5 0 Z M 0.25 0 "/></g></g></g><g fill="#6439ff" fill-opacity="1"><g transform="translate(132.035411, 54.921307)"><g><path d="M -1.578125 0 L 3.734375 -16.234375 L 9.234375 -16.234375 L 7.046875 0 L 3.96875 0 L 4.34375 -2.625 L 2.375 -2.625 L 1.578125 0 Z M 3.234375 -5.21875 L 4.703125 -5.21875 L 5.875 -13.46875 L 5.71875 -13.46875 Z M 3.234375 -5.21875 "/></g></g></g><g fill="#6439ff" fill-opacity="1"><g transform="translate(140.514008, 54.921307)"><g><path d="M -1.140625 0 L 2.609375 -16.234375 L 5.859375 -16.234375 L 2.75 -2.765625 L 6.09375 -2.765625 L 5.453125 0 Z M -1.140625 0 "/></g></g></g></svg>